:SAMPLES-PER-SECOND 24
:FULLY-SPECIFIED
:DEGREES
477
root  -1.09432 40.4254 -0.762357 130.918 66.4657 136.399
RightUpLeg  -2.00668 -40.7669 -16.8709
RightLeg  16.4508 -34.1623 -3.37867
RightFoot  -5.9416 0.399253 -9.28719
RightToes  -1.74623e-010 0 -2.59999e-017
Spine  1.50725 0.336875 2.72308
Spine1  15.7687 3.61173 -8.93202
HEad  -18.9463 58.8501 -33.1284
LeftShoulder1  1.58151 -1.9423 -22.7385
LeftArm  5.96328 22.5194 -37.0763
LeftForeArm  144.643 -70.5758 -149.033
LeftHand  0.205507 7.61064 11.9704
RightShoulder  2.98301 5.18591 28.3855
RightArm  5.3209 -18.7989 27.5551
RightForeArm  159.274 66.4442 156.339
RightHand  -0.00316435 -8.55589 -1.51858
LeftUpLeg  11.6077 34.6794 4.87891
LeftLeg  22.4787 1.10183 0.833983
LeftFoot  14.1713 3.51932 -15.8484
LeftToes  -6.27559e-011 -2.10356e-011 8.24929e-012
478
root  -1.66206 39.8852 -0.724549 143.07 65.5534 149.517
RightUpLeg  -7.86308 -57.5539 -12.4665
RightLeg  26.3279 -15.3765 -9.07952
RightFoot  -6.9042 0.135932 -4.74499
RightToes  -1.74623e-010 0 -2.59999e-017
Spine  1.97939 -0.666663 -1.86784
Spine1  16.2468 -0.00709692 -2.4248
HEad  -23.7469 57.1997 -33.8604
LeftShoulder1  1.58131 -1.93714 -22.7634
LeftArm  6.46528 17.1443 -38.1666
LeftForeArm  135.275 -74.232 -139.885
LeftHand  0.176073 7.39978 11.4399
RightShoulder  3.10981 5.3193 29.328
RightArm  0.379048 -20.7248 26.6326
RightForeArm  157.326 67.8965 154.46
RightHand  0.0516506 -9.70415 -2.69322
LeftUpLeg  13.7747 31.872 6.18888
LeftLeg  18.7233 4.45171 1.51891
LeftFoot  2.38373 1.64251 -13.8133
LeftToes  -6.27559e-011 -2.10356e-011 8.24929e-012
479
root  -2.28722 39.1459 -0.466409 151.121 62.5167 157.813
RightUpLeg  -13.9213 -53.8912 -12.0858
RightLeg  39.6103 -11.18 -9.95289
RightFoot  -5.94451 0.0188169 -1.33674
RightToes  -1.74623e-010 0 -2.59999e-017
Spine  2.52013 -1.13604 -7.61041
Spine1  17.5579 -2.66794 2.92416
HEad  -28.1729 54.4087 -33.8932
LeftShoulder1  1.59877 -2.002 -22.7374
LeftArm  7.07268 8.20618 -37.6224
LeftForeArm  114.395 -78.306 -118.473
LeftHand  0.176143 7.98425 8.81651
RightShoulder  3.24305 5.46246 30.2691
RightArm  -6.57757 -22.7267 29.3154
RightForeArm  155.873 70.3886 150.882
RightHand  0.127378 -10.9756 -3.62366
LeftUpLeg  11.7496 26.6944 6.57176
LeftLeg  18.608 5.7321 0.169207
LeftFoot  -5.77734 0.688109 -13.422
LeftToes  -6.27559e-011 -2.10356e-011 8.24929e-012
480
root  -2.80879 38.6093 -0.0331917 154.869 58.0949 161.163
RightUpLeg  -17.7671 -51.1805 -15.1112
RightLeg  49.1023 -3.69629 -4.82484
RightFoot  -2.4566 0.100957 -1.46608
RightToes  -1.74623e-010 0 -2.59999e-017
Spine  2.99915 -1.60507 -11.8325
Spine1  18.4953 -3.87578 3.86257
HEad  -29.2589 51.4136 -31.338
LeftShoulder1  1.61113 -2.10868 -22.3879
LeftArm  6.86242 -0.389331 -36.1821
LeftForeArm  94.7158 -80.1523 -89.0474
LeftHand  0.00497414 11.3212 1.37594
RightShoulder  3.45718 5.64728 31.8956
RightArm  -13.3476 -24.4982 35.414
RightForeArm  158.459 73.5649 145.568
RightHand  -0.0277722 -14.0426 -0.640707
LeftUpLeg  7.56686 26.7881 5.99248
LeftLeg  22.4092 -0.193938 -0.385772
LeftFoot  -8.4856 0.361493 -12.3981
LeftToes  -6.27559e-011 -2.10356e-011 8.24929e-012
481
root  -3.16451 38.5382 0.451065 157.95 54.9296 164.172
RightUpLeg  -17.6572 -45.8937 -17.9778
RightLeg  52.8047 2.78021 3.55898
RightFoot  1.3092 0.177233 -1.5174
RightToes  -1.74623e-010 0 -2.59999e-017
Spine  3.74415 -1.97276 -11.4021
Spine1  18.2361 -3.64362 1.35956
HEad  -26.8635 48.9105 -28.1139
LeftShoulder1  1.60908 -2.13921 -22.1846
LeftArm  4.83169 -3.00549 -36.3349
LeftForeArm  104.334 -80.8926 -79.1939
LeftHand  -0.825688 14.2485 -9.3829
RightShoulder  3.59674 5.7892 32.8257
RightArm  -14.5668 -25.4539 39.8903
RightForeArm  163.143 75.7847 141.064
RightHand  -0.716346 -16.502 6.2716
LeftUpLeg  4.35501 23.8949 5.23505
LeftLeg  23.913 -0.389739 -0.0121019
LeftFoot  -8.99291 0.304341 -12.1911
LeftToes  -6.27559e-011 -2.10356e-011 8.24929e-012
482
root  -3.32999 38.8425 1.03218 161.054 54.2628 167.368
RightUpLeg  -16.3884 -36.0695 -17.3303
RightLeg  51.6616 7.9753 10.3199
RightFoot  3.15343 -0.170988 1.53065
RightToes  -1.74623e-010 0 -2.59999e-017
Spine  3.95458 -1.38758 -8.55171
Spine1  17.7772 -2.23767 -1.06902
HEad  -23.5526 46.9598 -25.7805
LeftShoulder1  1.62291 -2.10565 -22.6257
LeftArm  1.85277 -0.0334027 -37.596
LeftForeArm  129.309 -81.5247 -92.6144
LeftHand  -1.32321 15.7106 -13.4208
RightShoulder  3.52261 5.78747 32.0313
RightArm  -9.61691 -26.0992 39.7906
RightForeArm  165.924 75.5876 142.102
RightHand  -1.15693 -14.9098 12.6414
LeftUpLeg  3.20566 19.324 6.22963
LeftLeg  21.9758 3.22729 0.314048
LeftFoot  -6.47963 0.594969 -13.0448
LeftToes  -6.27559e-011 -2.10356e-011 8.24929e-012
